<svg xmlns="http://www.w3.org/2000/svg" width="2996" height="1592" viewBox="0 0 2996 1592" version="1.1"><path d="" stroke="none" fill="#000000" fill-rule="evenodd"/><path d="M 2399.500 49.163 C 2282.554 64.321, 2249.261 72.993, 2210.800 98.315 C 2167.361 126.914, 2122.425 151.650, 2086.803 166.570 C 2083.336 168.022, 2080.310 169.391, 2080.077 169.611 C 2079.845 169.832, 2227.895 169.897, 2409.077 169.756 L 2738.500 169.500 2762 162.177 C 2900.110 119.141, 2947.197 79.687, 2892.365 52.943 L 2882.230 48 2644.365 48.128 C 2508.646 48.201, 2403.494 48.645, 2399.500 49.163 M 735.500 113.967 C 732.750 114.344, 725.972 116.493, 720.437 118.743 C 707.740 123.906, 686.550 127.321, 654.081 129.438 L 631.663 130.899 621.173 127.954 L 610.684 125.009 600.592 126.566 C 584.837 128.998, 547.810 140.022, 537.002 145.499 C 534.418 146.809, 528.523 148.830, 523.902 149.991 C 519.281 151.152, 511.900 153.164, 507.500 154.462 C 499.369 156.860, 489.004 158.697, 467.572 161.538 C 421.412 167.655, 374.383 185.955, 335.551 212.910 C 320.021 223.690, 317.562 224.985, 297.244 233.098 C 266.839 245.238, 238.500 262.366, 224 277.364 C 214.340 287.357, 196.541 299.203, 174.878 310.060 C 168.070 313.471, 160.250 317.693, 157.500 319.440 C 154.750 321.188, 149.052 324.514, 144.837 326.831 C 137.140 331.063, 128.236 342.217, 125.503 351.052 C 125.087 352.399, 122.504 359.125, 119.764 366 C 114.395 379.475, 110.845 396.398, 109.486 415 C 108.812 424.226, 101.521 445.890, 96.475 453.660 C 93.765 457.832, 87.194 479.608, 85.509 490 C 83.362 503.240, 83.293 503.338, 69.377 513.172 C 58.778 520.662, 57.011 522.391, 48.677 533.427 L 39.566 545.494 38.632 564.497 C 37.885 579.709, 38.027 587.649, 39.345 604.297 L 40.991 625.093 37.950 635.297 C 34.481 646.933, 33.427 657.778, 32.389 692.500 L 31.732 714.500 37.474 740.500 C 41.536 758.889, 43.893 767.525, 45.528 770 C 46.799 771.925, 50.025 776.677, 52.697 780.560 C 55.825 785.106, 59.105 791.873, 61.907 799.560 C 72.434 828.442, 78.081 839.322, 90.023 853.738 C 102.386 868.663, 101.645 868.177, 136.429 884.152 C 144.640 887.922, 157.432 894.924, 164.856 899.711 C 185.358 912.931, 214.145 921.967, 257 928.635 L 286.500 933.225 313.596 932.197 L 340.693 931.169 352.735 925.133 C 365.494 918.737, 369.562 914.863, 368.357 910.256 C 367.151 905.644, 377.816 877.521, 383.350 870.718 C 385.238 868.398, 389.194 862.583, 392.141 857.796 C 404.495 837.729, 409.899 830.209, 416.942 823.285 L 424.385 815.968 423.134 808.527 C 421.469 798.617, 423.634 795.393, 437.208 787.572 L 441.916 784.859 452.142 786.378 L 462.369 787.896 472.934 784.812 C 485.792 781.059, 484.600 782.001, 492.137 769.652 C 502.583 752.537, 507.215 749.196, 535.692 738.237 C 553.679 731.315, 558.254 729.008, 585.990 712.872 L 616.500 695.122 630.725 681.561 C 646.490 666.533, 647.010 666.293, 657.183 669.355 C 661.371 670.615, 662.890 670.455, 679.011 667.054 L 696.338 663.399 703.164 655.949 C 713.952 644.175, 724.609 626.817, 729.551 612.968 C 733.200 602.745, 743.858 581.399, 754.664 562.674 C 767.229 540.901, 779.519 468.064, 776.738 431.857 L 775.251 412.500 769.199 397.421 L 763.148 382.342 763.701 370.421 C 764.183 360.024, 764.950 356.006, 769.696 339 C 776.331 315.224, 777.226 302.042, 774.634 266.250 L 773.095 245.001 776.150 227.750 C 778.851 212.502, 779.150 208.933, 778.730 197 C 778.096 179, 782.720 164.511, 795.491 144.477 C 801.375 135.248, 805.021 127.626, 804.988 124.624 C 804.900 116.672, 762.837 110.221, 735.500 113.967 M 840 125.175 C 831.393 129.152, 827.611 132.926, 822.901 142.241 C 820.748 146.498, 817.476 152.348, 815.629 155.241 C 808.979 165.654, 806 172.659, 806 177.880 C 806 184.652, 803.186 206.213, 801.365 213.394 C 796.532 232.452, 794.841 247.162, 796.582 254.999 C 797.907 260.968, 798.111 265.153, 797.579 275.499 C 797.212 282.650, 796.539 297.725, 796.085 309 C 795.294 328.644, 795.065 330.294, 790.594 348.500 C 785.293 370.089, 785.291 371.369, 790.554 383 C 798.731 401.070, 802.268 459.035, 796.585 481.819 C 794.245 491.201, 790 523.524, 790 531.964 C 790 539.503, 783.700 558.703, 778.012 568.500 C 775.138 573.450, 770.984 581.100, 768.781 585.500 C 766.578 589.900, 762.794 596.699, 760.372 600.609 C 757.950 604.520, 754.684 611.495, 753.113 616.109 C 750.409 624.058, 744.611 634.516, 735.899 647.159 C 731.264 653.886, 731.140 654.480, 734.750 652.679 C 736.263 651.924, 741.325 650.121, 746 648.673 C 750.675 647.225, 759.900 643.075, 766.500 639.450 C 773.100 635.825, 783.319 630.734, 789.210 628.137 C 797.589 624.443, 800.418 622.677, 802.210 620.020 C 804.085 617.240, 806.974 615.548, 818.147 610.686 C 827.897 606.443, 832.087 604.105, 832.819 602.497 C 835.018 597.671, 840.123 593.240, 847.206 590.011 C 851.218 588.181, 856.402 584.955, 858.728 582.842 C 861.939 579.924, 863.796 579, 866.453 579 C 868.377 579, 871.425 578.102, 873.226 577.004 C 877.392 574.463, 881.048 574.463, 884.276 577.003 C 886.512 578.761, 888.877 579.079, 903.661 579.607 C 916.499 580.065, 922.639 580.758, 929.500 582.524 C 947.384 587.125, 961.316 588.557, 967.554 586.437 C 981.548 581.680, 1003.439 587.164, 1036.500 603.708 C 1042 606.460, 1054.375 611.453, 1064 614.803 C 1073.625 618.154, 1086.450 622.983, 1092.500 625.535 C 1119.721 637.018, 1140.363 626.507, 1152.080 595.196 C 1155.508 586.034, 1163.691 577.697, 1176.758 570.054 C 1193.099 560.496, 1192.350 561.271, 1199.998 546.005 C 1206.862 532.303, 1207 531.873, 1207.006 524.263 C 1207.013 513.431, 1208.866 507.835, 1219.178 487.500 C 1225.930 474.183, 1227.575 470.764, 1230.484 464 C 1232.258 459.875, 1234.507 453.125, 1235.483 449 C 1238.903 434.544, 1239.506 433.389, 1255.396 410.871 C 1261.604 402.072, 1262.627 397.727, 1261.495 384.944 C 1260.610 374.948, 1262.552 366.316, 1268.648 353.150 C 1276.149 336.948, 1275.363 328.516, 1265.189 316.031 C 1247.504 294.328, 1238.224 285.811, 1226.376 280.412 C 1222.222 278.519, 1216.725 275.223, 1214.162 273.088 C 1209.238 268.987, 1200.604 264.387, 1185.699 257.923 C 1175.511 253.504, 1173.580 252.054, 1170.906 246.814 C 1169.757 244.563, 1165.612 240.478, 1160.262 236.322 C 1155.443 232.579, 1148.350 226.888, 1144.500 223.675 C 1131.426 212.765, 1108.541 204.007, 1093.054 203.988 C 1077.051 203.968, 1069.239 200.935, 1065.500 193.290 C 1060.281 182.619, 1042.643 175, 1023.160 175 C 1014.948 175, 1014.419 174.858, 1008.570 171.082 C 1001.237 166.348, 987.341 163, 975.029 163 C 961.863 163, 942.502 156.753, 930.767 148.720 C 923.582 143.801, 913.034 140.084, 896.327 136.586 C 890.150 135.292, 883.891 133.355, 882.327 132.253 C 878.952 129.872, 850.576 121.662, 847.188 122.086 C 846.810 122.133, 843.575 123.523, 840 125.175 M 1399.352 211.075 C 1366.464 228.358, 1359.430 266.721, 1378.142 326.750 L 1379.155 330 1992.353 330 L 2605.550 330 2617.525 327.067 C 2729.768 299.577, 2780.439 247.289, 2728.121 212.942 L 2720.593 208 2062.898 208 L 1405.203 208 1399.352 211.075 M 1306.500 352.046 C 1303.750 353.120, 1299.866 353.999, 1297.869 353.999 C 1291.307 354.001, 1287.102 362.322, 1287.004 375.500 C 1286.859 395.008, 1281.151 417.258, 1275.107 421.867 C 1272.809 423.620, 1270.463 427.143, 1267.941 432.628 C 1265.879 437.112, 1262.574 442.573, 1260.596 444.762 C 1257.554 448.129, 1257 449.459, 1257 453.393 C 1257 458.925, 1250.609 472.589, 1246.517 475.808 C 1244.526 477.374, 1243.057 480.818, 1239.967 491.163 C 1237.776 498.499, 1235.295 506.239, 1234.454 508.365 C 1233.612 510.491, 1232.256 515.441, 1231.440 519.365 C 1230.624 523.289, 1229.152 527.625, 1228.170 529 C 1226.212 531.741, 1220.270 547.477, 1217.032 558.500 C 1213.939 569.029, 1209.203 577.165, 1205 579.169 C 1174.972 593.488, 1174.287 594.026, 1171.470 605.500 C 1169.260 614.499, 1169.069 614.833, 1160.063 625.500 C 1145.928 642.242, 1144.792 646.061, 1152.315 651.557 C 1154.617 653.239, 1158.231 655.883, 1160.346 657.432 C 1162.462 658.981, 1166.881 663.874, 1170.166 668.304 C 1176.943 677.445, 1176.986 677.852, 1172.914 694.167 C 1170.622 703.346, 1170.552 705.684, 1172.433 710.185 C 1173.221 712.072, 1174.837 718.691, 1176.024 724.894 L 1178.182 736.174 1175.042 747.837 C 1173.315 754.252, 1170.175 763.325, 1168.063 768 C 1160.621 784.479, 1160.553 784.791, 1162.472 793.678 C 1165.175 806.202, 1165.322 810.027, 1163.537 821.414 C 1161.121 836.819, 1149.050 865.933, 1140.489 877 C 1138.575 879.475, 1134.531 884.647, 1131.502 888.494 C 1122.477 899.956, 1126.243 901.175, 1144.916 892.837 C 1147.861 891.522, 1153.326 890.541, 1161.324 889.894 C 1167.920 889.360, 1173.783 888.634, 1174.352 888.282 C 1174.922 887.930, 1184.639 887.325, 1195.944 886.937 C 1211.221 886.414, 1217.656 885.806, 1221 884.571 C 1235.239 879.315, 1249.819 876.995, 1255.711 879.049 C 1258.180 879.910, 1259.328 879.741, 1262.110 878.108 C 1265.072 876.369, 1267.268 876.125, 1279.500 876.170 C 1291.496 876.215, 1294.359 875.909, 1299.500 874.033 C 1302.800 872.828, 1308.470 870.803, 1312.099 869.532 C 1315.729 868.262, 1325.053 863.997, 1332.821 860.056 L 1346.944 852.890 1358.729 840.195 C 1386.036 810.779, 1388.728 804.224, 1386.529 772.500 L 1385.836 762.500 1391.861 749.813 C 1396.934 739.134, 1398.223 735.257, 1400.008 725.313 C 1401.174 718.816, 1402.729 711.025, 1403.462 708 C 1406.331 696.167, 1406.241 690.167, 1402.965 674.652 C 1399.578 658.614, 1399.738 655.713, 1404.466 647.500 C 1413.099 632.502, 1413.489 614.261, 1405.834 583.502 C 1400.202 560.871, 1398.180 550.633, 1395.961 533.500 C 1392.447 506.376, 1394.168 509.642, 1375.033 493.781 C 1365.382 485.781, 1365.154 485.182, 1364.044 464.905 C 1362.518 437.023, 1359.804 426.277, 1351.281 414.375 C 1348.573 410.594, 1345.089 405.475, 1343.538 403 C 1341.986 400.525, 1338.868 397.133, 1336.608 395.462 C 1329.139 389.937, 1323.002 380.542, 1322.985 374.603 C 1322.952 363.236, 1317.647 349.924, 1313.199 350.047 C 1312.265 350.073, 1309.250 350.972, 1306.500 352.046 M 1410.961 378.869 C 1428.158 405.856, 1450.137 448.190, 1461.387 476 L 1466.849 489.500 1949.989 489.751 L 2433.129 490.002 2443.315 487.455 C 2548.610 461.120, 2605.148 406.086, 2561.153 372.750 L 2554.885 368 1979.460 368 L 1404.034 368 1410.961 378.869 M 1481.560 532.750 C 1490.597 562.068, 1499.949 609.316, 1502.492 638.500 C 1502.828 642.350, 1503.313 646.513, 1503.570 647.750 L 1504.038 650 1778.044 650 L 2052.050 650 2094.775 644.528 C 2202.675 630.710, 2256.942 621.779, 2301.195 610.556 C 2386.032 589.040, 2405.313 566.269, 2366.636 533.264 L 2360.500 528.028 1920.298 528.014 L 1480.096 528 1481.560 532.750 M 878 602.414 C 868.523 605.785, 850.448 616.972, 841 625.314 C 838.525 627.499, 833.800 630.551, 830.500 632.095 C 827.200 633.639, 823.150 635.826, 821.500 636.955 C 819.850 638.084, 814.225 640.643, 809 642.643 C 803.775 644.643, 791.625 650.199, 782 654.991 C 772.375 659.783, 760 665.183, 754.500 666.989 C 749 668.796, 740.225 671.950, 735 673.998 C 729.775 676.046, 722.800 678.023, 719.500 678.391 C 716.200 678.760, 709 680.797, 703.500 682.919 C 693.156 686.909, 680.738 689.154, 661.329 690.543 L 652.158 691.200 643.210 698.350 C 622.751 714.697, 617.389 718.627, 608.177 724.022 C 602.855 727.139, 595.983 731.239, 592.907 733.135 C 589.832 735.030, 582.182 738.743, 575.907 741.386 C 554.956 750.212, 544.559 755.258, 537.384 760.081 C 533.470 762.711, 528.295 765.805, 525.884 766.956 C 517.820 770.804, 512.659 775.389, 509 781.959 C 499.929 798.246, 477.860 808.820, 452.500 809.030 C 447.254 809.074, 445 810.881, 445 815.045 C 445 820.413, 441.402 826.348, 433.706 833.674 C 424.565 842.377, 414.171 855.688, 408.257 866.267 C 405.726 870.795, 402.262 876.146, 400.560 878.159 C 397.647 881.602, 396.352 884.546, 390.367 901.328 C 384.940 916.548, 386.243 940.712, 393.456 958.600 C 395.261 963.076, 397.301 969.160, 397.989 972.119 C 400.374 982.374, 407.165 997.324, 413.834 1007 C 424.891 1023.043, 427.695 1026.406, 434.720 1032.044 C 438.449 1035.037, 447.928 1043.677, 455.785 1051.243 C 463.642 1058.809, 470.516 1065, 471.061 1065 C 471.606 1065, 480.794 1069.231, 491.479 1074.402 C 526.440 1091.322, 539.332 1093.788, 579.730 1091.288 C 654.382 1086.667, 790.029 1048.365, 816 1024.573 C 817.925 1022.809, 820.451 1020.721, 821.613 1019.933 C 822.775 1019.145, 828.134 1014.793, 833.521 1010.262 C 845.253 1000.393, 858.025 993.534, 875.117 987.921 C 890.965 982.717, 888.271 984.183, 919.554 963.752 C 939.385 950.801, 947.761 947.054, 964.760 943.529 C 974.486 941.512, 979.719 938.691, 991.451 929.141 C 1004.604 918.434, 1009.947 916.241, 1019.073 917.806 C 1025.032 918.828, 1027.744 918.669, 1041.672 916.486 C 1050.377 915.122, 1058.648 914.004, 1060.051 914.003 C 1061.455 914.001, 1066.855 911.480, 1072.051 908.400 C 1077.248 905.320, 1085.327 900.871, 1090.003 898.514 C 1100.247 893.351, 1107.007 887.946, 1111.430 881.385 C 1113.241 878.698, 1117.372 873.572, 1120.611 869.994 C 1128.512 861.265, 1133.834 852.091, 1140.042 836.500 L 1145.217 823.500 1144.609 810.500 C 1144.275 803.350, 1143.730 793.450, 1143.399 788.500 C 1142.813 779.747, 1142.907 779.212, 1146.796 769 C 1157.923 739.781, 1158.813 732.731, 1153.977 712.132 C 1152.073 704.020, 1151.945 701.865, 1152.803 692.266 C 1154.087 677.878, 1153.266 675.800, 1143.802 669.507 C 1139.918 666.924, 1134.424 662.925, 1131.594 660.619 C 1128.763 658.314, 1125.110 655.941, 1123.474 655.346 C 1119.899 654.045, 1099.310 649.366, 1093 648.421 C 1082.252 646.811, 1069.497 642.979, 1065.573 640.181 C 1060.382 636.480, 1048.396 630.338, 1044.524 629.395 C 1038.271 627.871, 1003.859 613.199, 998.281 609.677 C 991.278 605.256, 980.828 604.285, 969.649 607.016 L 960.283 609.303 951.392 607.180 C 936.106 603.531, 925.227 602.307, 901 601.511 C 894.125 601.286, 887.600 600.876, 886.500 600.601 C 885.400 600.327, 881.575 601.142, 878 602.414 M 1505.175 708.248 C 1504.868 738.282, 1501.893 770.690, 1496.936 798 C 1495.888 803.775, 1495.024 808.837, 1495.015 809.250 C 1495.007 809.663, 1570.645 810, 1663.101 810 L 1831.202 810 1841.351 807.042 C 1944.048 777.106, 2036.937 717.223, 2019.798 692 L 2017.420 688.500 1761.401 688.248 L 1505.382 687.996 1505.175 708.248 M 1485.539 849.250 C 1485.320 849.938, 1483.921 854.775, 1482.430 860 C 1474.237 888.711, 1461.457 921.876, 1447.447 950.783 L 1438.101 970.067 1505.301 969.755 L 1572.500 969.442 1591.500 964.727 C 1731.639 929.947, 1828.330 880.785, 1814.386 851.401 L 1812.772 848 1649.355 848 C 1519.500 848, 1485.855 848.257, 1485.539 849.250 M 1265.559 896.532 C 1263.335 898.214, 1256.364 898.469, 1252.524 897.009 C 1250.461 896.225, 1247.578 896.726, 1238.709 899.408 C 1226.360 903.143, 1212.493 904.967, 1192.839 905.442 C 1186.052 905.605, 1177.800 906.254, 1174.500 906.882 C 1171.200 907.511, 1163.325 907.976, 1157 907.915 C 1144.993 907.801, 1139.474 909.069, 1134.115 913.173 C 1130.844 915.679, 1120.643 915.684, 1116.522 913.181 C 1113.797 911.526, 1113.036 911.491, 1107.535 912.761 C 1101.364 914.187, 1098.671 915.397, 1084 923.339 C 1075.427 927.980, 1066.444 931.367, 1060 932.390 C 1047.923 934.307, 1027.241 936.098, 1020.001 935.854 L 1011.500 935.568 1005.140 940.284 C 1001.612 942.900, 997.686 945, 996.323 945 C 994.972 945, 992.434 946.075, 990.683 947.388 C 985.374 951.371, 977.388 954.943, 970.259 956.522 C 951.334 960.716, 944.426 963.647, 928.761 974.133 C 923.667 977.542, 919.275 980.594, 918.999 980.916 C 918.724 981.237, 917.149 982.224, 915.499 983.109 C 913.850 983.994, 908.515 987.244, 903.644 990.330 C 897.251 994.381, 891.410 997.036, 882.644 999.876 C 870.069 1003.951, 854.530 1010.926, 851.275 1013.958 C 850.249 1014.915, 848.882 1015.878, 848.237 1016.099 C 845.249 1017.123, 833.005 1028.903, 831.441 1032.259 C 826.255 1043.383, 803.379 1057.026, 766.769 1070.831 C 755.385 1075.123, 755.904 1074.177, 761.318 1080.778 C 763.693 1083.674, 769.513 1092.445, 774.250 1100.271 C 778.988 1108.097, 784.905 1117.122, 787.399 1120.327 C 789.893 1123.532, 794.956 1131.407, 798.650 1137.827 C 805.301 1149.387, 824.221 1178.992, 838.896 1200.801 C 843.078 1207.017, 848.833 1215.792, 851.683 1220.301 C 854.534 1224.811, 860.371 1233.563, 864.655 1239.750 L 872.443 1251 937.240 1251 L 1002.038 1251 1001.526 1248.750 C 998.177 1234.048, 996.860 1224.155, 995.572 1204.021 C 993.606 1173.281, 993.280 1173.839, 1013.671 1173.001 C 1024.530 1172.554, 1026.099 1172.258, 1028.233 1170.252 C 1030.838 1167.803, 1036.933 1165.758, 1046.883 1163.995 C 1050.393 1163.373, 1054.443 1162.008, 1055.883 1160.962 C 1057.322 1159.915, 1061.018 1158.414, 1064.096 1157.624 C 1067.174 1156.835, 1071.899 1155.073, 1074.596 1153.708 C 1077.293 1152.344, 1082.789 1150.249, 1086.809 1149.054 C 1090.829 1147.858, 1096.861 1145.107, 1100.214 1142.940 C 1105.252 1139.684, 1107.195 1138.996, 1111.405 1138.976 C 1114.609 1138.961, 1118.727 1137.998, 1122.500 1136.382 C 1125.800 1134.969, 1129.625 1133.565, 1131 1133.262 C 1132.375 1132.960, 1136.819 1130.302, 1140.875 1127.356 C 1146.344 1123.384, 1149.127 1122, 1151.641 1122 C 1154.523 1122, 1156.141 1120.892, 1162.408 1114.624 C 1167.312 1109.721, 1171.335 1106.656, 1174.408 1105.482 C 1178.162 1104.048, 1179.376 1102.943, 1180.863 1099.608 C 1181.917 1097.243, 1186.046 1092.325, 1190.597 1088.016 C 1194.944 1083.900, 1200.122 1078.025, 1202.104 1074.959 C 1204.086 1071.893, 1207.967 1067.726, 1210.730 1065.698 C 1214.906 1062.633, 1216.139 1060.958, 1218.052 1055.756 C 1219.950 1050.594, 1221.962 1047.839, 1229.563 1040 C 1242.755 1026.394, 1249.310 1013.554, 1249.118 1001.693 C 1248.991 993.859, 1251.583 989.042, 1262.881 976.116 C 1273.190 964.321, 1274.577 961.387, 1278.395 943.307 C 1279.785 936.721, 1281.390 930.103, 1281.962 928.601 C 1284.919 920.822, 1281.034 907.873, 1274.448 903.558 C 1273.058 902.647, 1271.180 900.349, 1270.275 898.451 C 1268.421 894.563, 1268.253 894.494, 1265.559 896.532 M 1415.591 1009.625 C 1414.338 1012.888, 1391.856 1045.879, 1381.623 1059.469 C 1375.838 1067.152, 1371.263 1073.596, 1371.455 1073.788 C 1372.758 1075.091, 1428.681 1063.773, 1447.010 1058.497 C 1489.248 1046.340, 1503.068 1032.933, 1494.166 1012.750 L 1492.071 1008 1454.143 1008 C 1420.058 1008, 1416.151 1008.165, 1415.591 1009.625 M 323.599 1275.577 C 241.038 1288.414, 198.949 1374.480, 229.964 1467.052 C 264.116 1568.989, 423.555 1577.672, 470.169 1480.134 C 475.019 1469.987, 477.122 1471.884, 449.599 1461.576 C 422.452 1451.410, 424.915 1451.681, 422.068 1458.550 C 398.370 1515.724, 315.031 1518.726, 288.403 1463.365 C 270.129 1425.372, 276.618 1362.244, 301.331 1337.589 C 334.718 1304.282, 410.593 1317.445, 419.520 1358.093 C 420.386 1362.036, 424.031 1361.354, 465.733 1349.448 L 470.966 1347.954 468.435 1341.227 C 449.300 1290.355, 392.921 1264.800, 323.599 1275.577 M 604.500 1275.523 C 521.153 1288.952, 477.397 1374.299, 507.514 1464.694 C 544.912 1576.946, 720.981 1576.268, 759.419 1463.725 C 797.776 1351.415, 719.988 1256.915, 604.500 1275.523 M 904.189 1275.572 C 816.505 1288.347, 773.158 1379.572, 809.583 1474.674 C 840.711 1555.947, 974.033 1573.957, 1052.397 1507.476 L 1059 1501.875 1059 1452.437 L 1059 1403 1001 1403 L 943 1403 943 1423.500 L 943 1444 975 1444 L 1007 1444 1007 1462.494 L 1007 1480.987 1002.750 1484.127 C 976.478 1503.535, 925.691 1508.675, 897.037 1494.827 C 843.562 1468.982, 839.624 1359.030, 891.088 1328.724 C 927.275 1307.416, 981.925 1319.408, 998.369 1352.267 C 1001.868 1359.258, 998.766 1359.417, 1027.874 1350.754 C 1055.601 1342.502, 1054.395 1343.469, 1049.589 1333.350 C 1027.827 1287.525, 972.646 1265.598, 904.189 1275.572 M 2186.500 1275.523 C 2103.153 1288.952, 2059.397 1374.299, 2089.514 1464.694 C 2126.912 1576.946, 2302.981 1576.268, 2341.419 1463.725 C 2379.776 1351.415, 2301.988 1256.915, 2186.500 1275.523 M 1107 1410.486 L 1107 1543 1132 1543 L 1157 1543 1157 1455.922 C 1157 1400.829, 1156.598 1364.439, 1155.905 1356.850 C 1155.303 1350.253, 1155.019 1344.648, 1155.274 1344.393 C 1155.528 1344.139, 1181.069 1388.721, 1212.031 1443.465 L 1268.325 1543 1301.662 1543 L 1335 1543 1335 1410.500 L 1335 1278 1309.421 1278 L 1283.842 1278 1284.282 1367.750 C 1284.572 1426.787, 1285.123 1461.054, 1285.892 1467.886 C 1286.535 1473.598, 1286.883 1478.450, 1286.666 1478.668 C 1286.448 1478.886, 1260.584 1433.937, 1229.190 1378.782 L 1172.111 1278.500 1139.555 1278.236 L 1107 1277.973 1107 1410.486 M 1385 1410.500 L 1385 1543 1413.500 1543 L 1442 1543 1442 1410.500 L 1442 1278 1413.500 1278 L 1385 1278 1385 1410.500 M 1492 1410.500 L 1492 1543 1520.500 1543 L 1549 1543 1549 1496.566 L 1549 1450.132 1592.750 1449.766 L 1636.500 1449.401 1646.372 1446.727 C 1731.452 1423.685, 1734.463 1303.582, 1650.500 1282.079 C 1635.781 1278.309, 1629.793 1278.040, 1560.250 1278.020 L 1492 1278 1492 1410.500 M 1749 1410.500 L 1749 1543 1777.500 1543 L 1806 1543 1806 1410.500 L 1806 1278 1777.500 1278 L 1749 1278 1749 1410.500 M 1856 1410.500 L 1856 1543 1955.500 1543 L 2055 1543 2055 1521.500 L 2055 1500 1984 1500 L 1913 1500 1913 1389 L 1913 1278 1884.500 1278 L 1856 1278 1856 1410.500 M 2369 1299.500 L 2369 1321 2411.500 1321 L 2454 1321 2454 1432 L 2454 1543 2482.500 1543 L 2511 1543 2511 1432 L 2511 1321 2554 1321 L 2597 1321 2597 1299.500 L 2597 1278 2483 1278 L 2369 1278 2369 1299.500 M 622 1318.650 C 572.393 1325.304, 546.186 1375.122, 559.060 1438.295 C 577.490 1528.732, 694.954 1524.468, 708.436 1432.872 C 719.105 1360.382, 681.487 1310.670, 622 1318.650 M 2204 1318.650 C 2154.393 1325.304, 2128.186 1375.122, 2141.060 1438.295 C 2159.490 1528.732, 2276.954 1524.468, 2290.436 1432.872 C 2301.105 1360.382, 2263.487 1310.670, 2204 1318.650 M 1549 1364.500 L 1549 1407 1580.250 1406.992 C 1642.799 1406.977, 1664.322 1389.660, 1652.412 1348.932 C 1645.806 1326.343, 1634.743 1322.037, 1583.250 1322.015 L 1549 1322 1549 1364.500" stroke="none" fill="#ffffff" fill-rule="evenodd"/></svg>